<svg style="position: absolute; width: 0; height: 0; overflow: hidden;" aria-hidden="true" version="1.1" xmlns="http://www.w3.org/2000/svg" xmlns:xlink="http://www.w3.org/1999/xlink">
  <defs>
    <!-- Хрестик закриття -->
    <symbol id="close" viewBox="0 0 14 14" fill="none">
      <path stroke="var(--color1, #000)" fill="var(--color0, #fff)" d="M12.1748 0.5c0.1643 0 0.2663 0.0485 0.3467 0.1289 0.0802 0.0803 0.1288 0.1818 0.1289 0.3457 0 0.1642-0.0486 0.2663-0.1289 0.3467L7.2676 6.5752 7.6211 6.9287l4.9004 4.8994c0.0804 0.0804 0.1289 0.1825 0.1289 0.3467 0 0.1643-0.0485 0.2663-0.1289 0.3467s-0.1824 0.1289-0.3467 0.1289c-0.1642 0-0.2663-0.0485-0.3467-0.1289L6.9287 7.6211 6.5752 7.2676 1.3213 12.5215c-0.0804 0.0803-0.1825 0.1289-0.3467 0.1289-0.1639-1e-4-0.2654-0.0487-0.3457-0.1289C0.5485 12.4411 0.5 12.3391 0.5 12.1748c0-0.1642 0.0485-0.2663 0.1289-0.3467l5.2529-5.2529-0.3535-0.3535-4.8994-4.9004C0.5485 1.2409 0.5 1.1389 0.5 0.9746c1e-4-0.164 0.0486-0.2654 0.1289-0.3457C0.7092 0.5486 0.8106 0.5001 0.9746 0.5c0.1643 0 0.2663 0.0485 0.3467 0.1289l4.9004 4.8994 0.3535 0.3535 5.2529-5.2529C11.9085 0.5485 12.0106 0.5 12.1748 0.5z" />
    </symbol>
    <symbol id="icon-close" viewBox="0 0 24 24">
      <path d="M17.6 5.925c0.164 0 0.266 0.049 0.347 0.129s0.129 0.182 0.129 0.346c0 0.164-0.049 0.266-0.129 0.347l-5.254 5.254 5.254 5.253c0.080 0.080 0.129 0.183 0.129 0.347s-0.048 0.266-0.129 0.347-0.182 0.129-0.347 0.129c-0.164 0-0.266-0.048-0.347-0.129l-5.253-5.254-5.254 5.254c-0.080 0.080-0.182 0.129-0.347 0.129s-0.265-0.049-0.346-0.129c-0.080-0.080-0.129-0.182-0.129-0.347s0.049-0.266 0.129-0.347l5.253-5.253-5.253-5.254c-0.080-0.080-0.129-0.182-0.129-0.347s0.049-0.265 0.129-0.346 0.182-0.129 0.346-0.129c0.164 0 0.266 0.049 0.347 0.129l5.254 5.253 5.253-5.253c0.080-0.080 0.183-0.129 0.347-0.129z"></path>
    </symbol>
    <!-- зберігти маленька -->
    <symbol id="savesmall" viewBox="0 0 24 24" fill="none">
      <path fill="currentColor" d="M12.0001 18.1675l-4.7685 2.04c-0.5677 0.2446-1.1064 0.1987-1.6163-0.1378-0.5098-0.3365-0.7647-0.8126-0.7647-1.4285l0-14.2125c0-0.4616 0.1689-0.8619 0.5067-1.2007 0.3377-0.339 0.7365-0.5085 1.1965-0.5085l10.8925 0c0.4617 0 0.862 0.1695 1.2008 0.5085 0.339 0.3388 0.5085 0.7391 0.5085 1.2007v14.2125c0 0.6159-0.2559 1.092-0.7678 1.4285-0.5118 0.3365-1.0515 0.3824-1.6192 0.1378zM12.0001 16.3452l5.4462 2.296V4.4287l-10.8925 0 0 14.2125zM12.0001 4.4287l-5.4463 0 10.8925 0z" />
    </symbol>
    <!-- зберегти  -->
    <symbol id="save" viewBox="0 0 15 18" fill="none">
      <path fill="currentColor" d="M7.1495 15.448 2.381 17.488c-0.5677 0.2447-1.1064 0.1987-1.6163-0.1378C0.2549 17.0137 0 16.5376 0 15.9218V1.7093c0-0.4617 0.1689-0.862 0.5068-1.2008C0.8444 0.1695 1.2433 0 1.7033 0h10.8924c0.4617 0 0.862 0.1695 1.2008 0.5085 0.339 0.3388 0.5085 0.7391 0.5085 1.2007v14.2126c0 0.6158-0.2559 1.0919-0.7678 1.4284-0.5118 0.3365-1.0515 0.3825-1.6192 0.1378zM7.1495 13.6257l5.4462 2.2961V1.7093l-10.8924-1e-4-1e-4 14.2126zM7.1495 1.7093l-5.4463-1e-4 10.8925 0z" />
    </symbol>
    <symbol id="people" viewBox="0 0 48 48" fill="none">
      <path fill="currentColor" d="M1.7251 31.9065v-0.853c0-1.864 0.9263-3.0888 2.779-3.6745 1.8523-0.586 3.4938-0.879 4.9245-0.879 1.4303 0 3.0717 0.2922 4.924 0.8765 1.8527 0.5847 2.779 1.8104 2.779 3.677v0.853zM9.4261 23.8215c-1.0877 0-2.018-0.388-2.791-1.164-0.7733-0.7763-1.16-1.7095-1.16-2.7995s0.3873-2.0216 1.162-2.795c0.7747-0.773 1.7058-1.1595 2.7935-1.1595 1.0877 0 2.018 0.3879 2.791 1.1635 0.7733 0.776 1.16 1.7079 1.16 2.7955 0 1.0877-0.3873 2.0195-1.162 2.7955-0.7747 0.7757-1.7058 1.1635-2.7935 1.1635zM19.8666 26.8195c-0.3827 0-0.6987-0.1198-0.948-0.3595-0.2493-0.2396-0.374-0.5475-0.374-0.9235 0-0.1876 0.1247-0.5125 0.374-0.9745 0.2587-0.3666 0.463-0.75 0.613-1.15s0.225-0.817 0.225-1.251-0.075-0.863-0.225-1.287-0.3557-0.7986-0.617-1.124c-0.108-0.1456-0.1967-0.2971-0.266-0.4545-0.0693-0.1573-0.104-0.324-0.104-0.5 0-0.381 0.125-0.6955 0.375-0.9435 0.25-0.2476 0.5657-0.3715 0.947-0.3715 0.1683 0 0.3413 0.027 0.519 0.081s0.3165 0.1477 0.4165 0.281c0.5827 0.608 1.0093 1.2847 1.28 2.03 0.2707 0.7454 0.406 1.5085 0.406 2.2895 0 0.7747-0.1457 1.5525-0.437 2.3335-0.2913 0.7814-0.7195 1.4514-1.2845 2.01-0.1333 0.1334-0.2723 0.219-0.417 0.257-0.1443 0.038-0.3053 0.057-0.483 0.057zM23.6746 30.623c-0.3893 0-0.7058-0.1256-0.9495-0.377-0.2433-0.251-0.365-0.5686-0.365-0.953 0-0.1773 0.0323-0.3423 0.097-0.495 0.0647-0.153 0.1512-0.3011 0.2595-0.4445 0.8193-0.959 1.4267-1.9613 1.822-3.007 0.3953-1.0456 0.593-2.1081 0.593-3.1875 0-1.0793-0.1977-2.1511-0.593-3.2155-0.3953-1.0646-1.0033-2.0636-1.824-2.997-0.107-0.142-0.1928-0.2875-0.2575-0.4365-0.0647-0.1493-0.097-0.317-0.097-0.503 0-0.3873 0.1248-0.7038 0.3745-0.9495 0.25-0.2456 0.5662-0.3685 0.9485-0.3685 0.1957 0 0.3773 0.0455 0.545 0.1365s0.3215 0.2122 0.4615 0.3635c1.0427 1.2 1.8218 2.4735 2.3375 3.8205 0.516 1.347 0.774 2.7292 0.774 4.1465 0 1.417-0.258 2.799-0.774 4.146-0.5157 1.3474-1.2947 2.621-2.337 3.821-0.131 0.1667-0.2807 0.2917-0.449 0.375-0.168 0.0834-0.3568 0.125-0.5665 0.125zM30.8686 31.9065v-0.853c0-1.8666 0.9263-3.0923 2.779-3.677 1.8523-0.5843 3.4937-0.8765 4.924-0.8765 1.4307 0 3.0722 0.293 4.9245 0.879 1.8527 0.5857 2.779 1.8105 2.779 3.6745v0.853zM38.5696 23.8215c-1.0877 0-2.018-0.388-2.791-1.164-0.7733-0.7763-1.16-1.7095-1.16-2.7995s0.3873-2.0216 1.162-2.795c0.7747-0.773 1.7058-1.1595 2.7935-1.1595s2.018 0.3879 2.791 1.1635c0.7733 0.776 1.16 1.7079 1.16 2.7955 0 1.0877-0.3873 2.0195-1.162 2.7955-0.7747 0.7757-1.7058 1.1635-2.7935 1.1635z" />
    </symbol>
    <symbol id="pen" viewBox="0 0 19 19" fill="none">
      <path fill="currentColor" d="M1.6973 16.5767h1.1059L14.2985 5.1065l-1.094-1.1L1.6973 15.4827zM0.8518 18.28c-0.2447 0-0.4478-0.0808-0.6093-0.2425C0.0808 17.876 0 17.6729 0 17.4283v-1.9206c0-0.228 0.0467-0.4507 0.14-0.6682 0.0933-0.2177 0.2166-0.4031 0.3698-0.5563L14.363 0.449c0.1373-0.1413 0.3027-0.2515 0.496-0.3305S15.253 0 15.461 0c0.1912 0 0.3824 0.0395 0.5737 0.1185 0.1914 0.079 0.3681 0.1872 0.53 0.3245l1.2973 1.2793c0.154 0.1619 0.2663 0.3396 0.337 0.533 0.0707 0.1933 0.106 0.3875 0.106 0.5827 0 0.1953-0.0395 0.3928-0.1185 0.5925S17.9993 3.8007 17.862 3.942L4.0088 17.7702C3.8514 17.9234 3.665 18.0467 3.4495 18.14s-0.4373 0.14-0.6652 0.14zM13.7545 4.5505l-0.55-0.544 1.094 1.1z" />
    </symbol>
    <symbol id="magic" viewBox="0 0 48 48" fill="none">
      <path fill="currentColor" d="M32.7716 25.4435 28.1021 32.973c-0.2667 0.4413-0.6437 0.612-1.131 0.512-0.4874-0.1-0.7977-0.3873-0.931-0.862l-1.638-6.6145-15.1205 15.047c-0.34 0.3477-0.7379 0.5215-1.1935 0.5215-0.4557 0-0.8535-0.1738-1.1935-0.5215-0.3397-0.34-0.5095-0.7378-0.5095-1.1935 0-0.4556 0.1698-0.8535 0.5095-1.1935L21.9651 23.61l-6.638-1.6385c-0.4747-0.1333-0.76-0.4435-0.856-0.9305-0.096-0.4873 0.0726-0.8683 0.506-1.143l7.5295-4.7195-0.612-8.8035c-0.0334-0.508 0.177-0.8787 0.631-1.112 0.454-0.2333 0.8683-0.1833 1.243 0.15l6.7555 5.6815 8.191-3.2835c0.4666-0.1666 0.8706-0.0793 1.212 0.262 0.3413 0.3414 0.4286 0.7454 0.262 1.212l-3.3335 8.191 5.6815 6.7675c0.3333 0.3747 0.3916 0.789 0.175 1.243-0.2167 0.454-0.579 0.6643-1.087 0.631zM6.3231 11.998c-0.1827-0.1747-0.274-0.38-0.274-0.616 0-0.2357 0.0913-0.4448 0.274-0.6275L8.7666 8.311c0.1746-0.1746 0.3798-0.262 0.6155-0.262 0.236 0 0.4453 0.0874 0.628 0.262l2.3815 2.3935c0.1823 0.1827 0.2735 0.3898 0.2735 0.6215 0 0.232-0.0912 0.4393-0.2735 0.622l-2.4435 2.4435c-0.1827 0.1823-0.39 0.2735-0.622 0.2735-0.2317 0-0.4389-0.0912-0.6215-0.2735zM27.9741 27.073l3.078-4.9565 5.8445 0.438-3.804-4.4805 2.202-5.4065-5.4065 2.19-4.4925-3.804 0.45 5.8445-4.9685 3.116 5.6945 1.4145zM36.0521 41.677l-2.4435-2.4315c-0.1824-0.1826-0.2652-0.3898-0.2485-0.6215 0.0166-0.232 0.1161-0.4393 0.2985-0.622l2.3935-2.3815c0.1746-0.1827 0.38-0.274 0.616-0.274 0.2356 0 0.4448 0.0913 0.6275 0.274l2.4435 2.4315c0.1746 0.1827 0.2536 0.39 0.237 0.622-0.0167 0.2317-0.1124 0.4389-0.287 0.6215l-2.3935 2.3815c-0.1827 0.1827-0.3899 0.274-0.6215 0.274-0.232 0-0.4394-0.0913-0.622-0.274z" />
    </symbol>
    <!-- стрілка до низу -->
    <symbol id="down" viewBox="0 0 12 7" fill="none">
      <path fill="currentColor" fill-opacity="0.6" d="M5.7898 6.6785c-0.112 0-0.2176-0.0207-0.3167-0.062-0.0994-0.0413-0.1947-0.1077-0.286-0.199l-4.944-4.944c-0.17-0.17-0.2508-0.3731-0.2425-0.6093C89e-4 0.6281 0.0981 0.425 0.2681 0.255 0.4381 0.085 0.6412 0 0.8773 0 1.1135 0 1.3166 0.085 1.4866 0.255l4.3032 4.3283 4.3283-4.3283c0.17-0.17 0.3689-0.2508 0.5967-0.2425 0.2279 83e-4 0.4268 0.0975 0.5968 0.2675s0.255 0.3731 0.255 0.6093c0 0.2361-0.085 0.4392-0.255 0.6092l-4.919 4.919c-0.0914 0.0913-0.1867 0.1577-0.286 0.199-0.0992 0.0413-0.2048 0.062-0.3168 0.062z" />
    </symbol>
    <symbol id="bag" viewBox="0 0 48 48" fill="none">
      <path fill="currentColor" d="M9.7009 38.6425l0-23.535c0-0.9483 0.3315-1.7552 0.9945-2.4205s1.467-0.998 2.412-0.998h5.011V5.3795c0-0.487 0.179-0.9125 0.537-1.2765 0.358-0.3637 0.7809-0.5455 1.2685-0.5455h8.152c0.4877 0 0.9105 0.1818 1.2685 0.5455 0.358 0.364 0.537 0.7895 0.537 1.2765v6.3095h5.011c0.9484 0 1.7552 0.3327 2.4205 0.998 0.6654 0.6653 0.998 1.4722 0.998 2.4205v23.535c0 0.945-0.3326 1.749-0.998 2.412-0.6653 0.663-1.4721 0.9945-2.4205 0.9945v0.8215c0 0.4453-0.149 0.8187-0.447 1.12-0.2976 0.3013-0.6726 0.452-1.125 0.452-0.457 0-0.8491-0.1397-1.1765-0.419-0.327-0.2793-0.4586-0.6637-0.395-1.153V42.049h-15.498v0.8215c0 0.4453-0.1488 0.8187-0.4465 1.12-0.298 0.3013-0.673 0.452-1.125 0.452-0.4573 0-0.8496-0.1397-1.177-0.419-0.327-0.2793-0.4586-0.6637-0.395-1.153V42.049c-0.945 0-1.749-0.3315-2.412-0.9945s-0.9945-1.467-0.9945-2.412zM21.2499 11.689h5.5v-5h-5.5zM23.9999 23.6665c1.914 0 3.8037-0.2127 5.669-0.638 1.865-0.4257 3.6062-1.1438 5.2235-2.1545v-5.7665h-21.785v5.7685c1.6174 1.0093 3.3587 1.7268 5.224 2.1525 1.865 0.4253 3.7545 0.638 5.6685 0.638zM22.4284 27.6435V26.998c-1.6683-0.1-3.2865-0.369-4.8545-0.807-1.5683-0.4383-3.0571-1.0828-4.4665-1.9335v14.385h21.785v-14.397c-1.4093 0.8507-2.8981 1.4952-4.4665 1.9335-1.568 0.438-3.1861 0.711-4.8545 0.819v0.6455c0 0.4453-0.1496 0.8187-0.449 1.12-0.2996 0.301-0.6768 0.4515-1.1315 0.4515-0.4543 0-0.8283-0.1488-1.122-0.4465-0.2936-0.298-0.4405-0.673-0.4405-1.125z" />
    </symbol>
    <symbol id="Youtube" viewBox="0 0 24 24" fill="none">
      <path fill="currentColor" d="M21.5931 7.203c-0.1139-0.4226-0.3365-0.808-0.6456-1.1178-0.3092-0.3099-0.6941-0.5333-1.1164-0.6482C18.2651 5.007 12.0001 5 12.0001 5c0 0-6.264-7e-3-7.831 0.404C3.747 5.5242 3.3629 5.7508 3.0537 6.0621 2.7444 6.3735 2.5204 6.7591 2.4031 7.182c-0.413 1.566-0.417 4.814-0.417 4.814 0 0-4e-3 3.264 0.406 4.814 0.23 0.857 0.905 1.534 1.763 1.765 1.582 0.43 7.83 0.437 7.83 0.437s6.265 7e-3 7.831-0.403c0.4225-0.1147 0.8077-0.3376 1.1176-0.6468s0.5338-0.694 0.6494-1.1162c0.414-1.565 0.417-4.812 0.417-4.812s0.02-3.265-0.407-4.831zM9.9961 15.005l5e-3-6 5.207 3.005z" />
    </symbol>
    <symbol id="X" viewBox="0 0 24 24" fill="none">
      <path fill="currentColor" d="M17.1761 4.2427l2.7601 0-6.0301 6.7774L21 20.2427h-5.5544l-4.3505-5.5934-4.9779 5.5934H3.3554l6.4498-7.2492L3 4.2427l5.6954 0 3.9325 5.1126zM16.2073 18.6181h1.5295L7.8644 5.782l-1.6412 0z" />
    </symbol>
    <symbol id="menu" viewBox="0 0 24 24" fill="none">
      <path fill="currentColor" d="M3.7023 18.2208c-0.2405 0-0.4426-0.0822-0.6062-0.2467-0.1637-0.1645-0.2455-0.3696-0.2455-0.6153 0-0.2416 0.0818-0.4433 0.2455-0.605 0.1637-0.1615 0.3657-0.2422 0.6062-0.2422h16.5955c0.2405 0 0.4436 0.0822 0.6093 0.2467s0.2485 0.3676 0.2485 0.6093c0 0.2456-0.0828 0.4492-0.2485 0.6107-0.1657 0.1617-0.3688 0.2425-0.6093 0.2425zM3.7023 12.8513c-0.2405 0-0.4426-0.0823-0.6062-0.247-0.1637-0.1645-0.2455-0.3676-0.2455-0.6092 0-0.2415 0.0818-0.4431 0.2455-0.6048 0.1637-0.1616 0.3657-0.2425 0.6062-0.2425h16.5955c0.2405 0 0.4436 0.0824 0.6093 0.247 0.1657 0.1645 0.2485 0.3676 0.2485 0.6093 0 0.2415-0.0828 0.4431-0.2485 0.6047-0.1657 0.1617-0.3688 0.2425-0.6093 0.2425zM3.7023 7.4876c-0.2405 0-0.4426-0.0823-0.6062-0.2468-0.1637-0.1645-0.2455-0.3696-0.2455-0.6152 0-0.2417 0.0818-0.4433 0.2455-0.6048 0.1637-0.1617 0.3657-0.2425 0.6062-0.2425l16.5955 0c0.2405 0 0.4436 0.0823 0.6093 0.2468 0.1657 0.1645 0.2485 0.3675 0.2485 0.6092 0 0.2457-0.0828 0.4493-0.2485 0.611-0.1657 0.1615-0.3688 0.2423-0.6093 0.2423z" />
    </symbol>
    <symbol id="logout" viewBox="0 0 24 24" fill="none">
      <path fill="currentColor" d="M4.5538 21.1495c-0.46 0-0.8588-0.1689-1.1965-0.5067-0.3378-0.3377-0.5067-0.7365-0.5067-1.1965l0-14.8925c0-0.4617 0.1689-0.862 0.5067-1.2008 0.3377-0.339 0.7365-0.5085 1.1965-0.5085l6.6055 0c0.2404 0 0.4424 0.0834 0.606 0.2503 0.1637 0.167 0.2455 0.371 0.2455 0.6122 0 0.2413-0.0818 0.4428-0.2455 0.6045-0.1636 0.1615-0.3656 0.2423-0.606 0.2423l-6.6055 0 0 14.8925h6.6055c0.2404 0 0.4424 0.0822 0.606 0.2467 0.1637 0.1645 0.2455 0.3676 0.2455 0.6093 0 0.2416-0.0818 0.4432-0.2455 0.6047-0.1636 0.1617-0.3656 0.2425-0.606 0.2425zM17.8918 12.8518h-8.076c-0.2403 0-0.4423-0.0824-0.606-0.247-0.1636-0.1645-0.2455-0.3676-0.2455-0.6093 0-0.2415 0.0819-0.4431 0.2455-0.6047 0.1637-0.1617 0.3657-0.2425 0.606-0.2425h8.026L15.9186 9.225c-0.17-0.1708-0.2508-0.3709-0.2425-0.6002 83e-4-0.2295 0.0975-0.4283 0.2675-0.5963 0.1698-0.1718 0.3722-0.2567 0.6072-0.2547 0.2349 2e-3 0.4386 0.0879 0.6113 0.2577l3.3967 3.3968c0.1659 0.1713 0.2488 0.3705 0.2488 0.5977s-0.0829 0.4258-0.2488 0.5958l-3.3717 3.3717c-0.1667 0.1698-0.3648 0.2516-0.5943 0.2453-0.2296-64e-4-0.4326-0.0945-0.609-0.2643-0.1635-0.17-0.2463-0.3728-0.2485-0.6085-21e-4-0.2358 0.084-0.4392 0.2583-0.61z" />
    </symbol>
    <symbol id="Instagram" viewBox="0 0 24 24" fill="currentColor">
      <path d="M12.0051 4.8663c2.4044 0 2.689 0.0107 3.6344 0.0528 0.8791 0.0389 1.3532 0.1862 1.6699 0.3094 0.4184 0.162 0.7204 0.3588 1.0332 0.6715 0.3166 0.3166 0.5095 0.6153 0.6749 1.0337 0.1231 0.3167 0.2705 0.7942 0.3093 1.6699 0.0422 0.9494 0.0529 1.2339 0.0529 3.6349 0 2.401-0.0107 2.689-0.0529 3.635-0.0388 0.8791-0.1862 1.3532-0.3093 1.6698-0.162 0.4185-0.3583 0.7205-0.6716 1.0332-0.3166 0.3166-0.6153 0.5096-1.0331 0.6749-0.3167 0.1232-0.7948 0.2705-1.6699 0.3093-0.9494 0.0422-1.2339 0.0529-3.6349 0.0529-2.401 0-2.689-0.0107-3.635-0.0529-0.8791-0.0388-1.3532-0.1861-1.6698-0.3093-0.4185-0.162-0.7205-0.3583-1.0338-0.6715-0.3166-0.3167-0.5095-0.6153-0.6749-1.0332-0.1232-0.3166-0.2705-0.7947-0.3093-1.6698-0.0422-0.9494-0.0529-1.234-0.0529-3.635 0-2.401 0.0107-2.6889 0.0529-3.6349 0.0388-0.8791 0.1861-1.3532 0.3093-1.6699 0.162-0.4184 0.3588-0.7205 0.6716-1.0337 0.3166-0.3167 0.6152-0.5096 1.0337-0.6749 0.3166-0.1232 0.7941-0.2706 1.6698-0.3094 0.9455-0.0421 1.2306-0.0528 3.635-0.0528zM12.0051 3.2459c-2.4431 0-2.7485 0.0107-3.7086 0.0529C7.3404 3.341 6.6829 3.4956 6.1137 3.7172 5.5198 3.949 5.017 4.2549 4.5182 4.7577 4.0153 5.2572 3.7094 5.7594 3.4777 6.35 3.2561 6.9231 3.1014 7.5766 3.0592 8.5327 3.017 9.4962 3.0064 9.8016 3.0064 12.2447c-1e-4 2.4432 0.0106 2.7486 0.0528 3.7087 0.0422 0.9561 0.1969 1.6136 0.4185 2.1827 0.2322 0.5939 0.5376 1.0968 1.0405 1.5956 0.4988 0.4989 1.0016 0.8088 1.5922 1.0371 0.5731 0.2216 1.2266 0.3763 2.1827 0.4185 0.9595 0.0422 1.2655 0.0528 3.7087 0.0528 2.4431 0 2.7491-0.0106 3.7086-0.0528 0.9561-0.0422 1.6136-0.1969 2.1828-0.4185 0.5905-0.2283 1.0933-0.5376 1.5922-1.0371 0.4989-0.4994 0.8088-1.0017 1.0371-1.5922 0.2216-0.5731 0.3763-1.2266 0.4185-2.1828 0.0421-0.9595 0.0528-1.2654 0.0528-3.7086 0-2.4432-0.0107-2.7486-0.0528-3.7086-0.0422-0.9562-0.1969-1.6136-0.4185-2.1828-0.2216-0.5979-0.5275-1.1001-1.0298-1.5995-0.4989-0.4989-1.0017-0.8088-1.5922-1.0371-0.5731-0.2216-1.2267-0.3763-2.1828-0.4185-0.9629-0.0455-1.2688-0.0562-3.712-0.0562z" />
      <path d="M12.0049 7.6221c-2.5517 0-4.6226 2.0703-4.6226 4.6225 0 2.5523 2.0703 4.6226 4.6226 4.6226s4.6226-2.0703 4.6226-4.6226c0-2.5517-2.0703-4.6225-4.6226-4.6225zM12.0049 15.2429c-1.6558 0-2.9983-1.3425-2.9983-2.9983 0-1.6557 1.3425-2.9983 2.9983-2.9983 1.6558 0 2.9983 1.3426 2.9983 2.9983 0 1.6558-1.3425 2.9983-2.9983 2.9983z" />
      <path d="M17.8886 7.4394c0 0.5962-0.4832 1.0793-1.0793 1.0793-0.5962 0-1.0793-0.4831-1.0793-1.0793s0.4831-1.0793 1.0793-1.0793c0.5961 0 1.0793 0.4831 1.0793 1.0793z" />
    </symbol>
    <symbol id="Facebook1" viewBox="0 0 24 24" fill="none">
      <path fill="currentColor" d="M22 12.3038c0-5.5566-4.4771-10.0611-10-10.0611-5.5228 0-10 4.5045-10 10.0611 0 5.0217 3.6568 9.1841 8.4375 9.9389v-7.0306H7.8984l0-2.9083h2.5391v-2.2166c0-2.5216 1.493-3.9144 3.7771-3.9144 1.0942 0 2.2385 0.1965 2.2385 0.1965v2.476l-1.2609 0c-1.2422 0-1.6297 0.7756-1.6297 1.5713v1.8872h2.7734l-0.4433 2.9083h-2.3301v7.0306C18.3432 21.4879 22 17.3257 22 12.3038z" />
    </symbol>
  </defs>
</svg>